<svg id="Layer_1" data-name="Layer 1" xmlns="http://www.w3.org/2000/svg" viewBox="0 0 560.79 149.5"><path d="M468.37,308.5c-44.31,0-80.09,33.37-80.09,74.75a71.66,71.66,0,0,0,10.15,36.57,4.91,4.91,0,0,1,.53,4.28l-7.47,23.76a5.38,5.38,0,0,0,6.94,6.67l23.49-8.28a5.4,5.4,0,0,1,4.54.54A82.93,82.93,0,0,0,468.64,458c44.32,0,80.09-33.37,80.09-74.75C548.46,341.87,512.69,308.5,468.37,308.5Zm58,92.76a33.65,33.65,0,0,1-13,13,36,36,0,0,1-18,4.75,35.29,35.29,0,0,1-17.88-4.75,34.79,34.79,0,0,1-13-13,35.42,35.42,0,0,1-4.75-18,17.85,17.85,0,1,0-17.88,17.89c.66,0,1.71-.09,3.12-.25a54.45,54.45,0,0,0,8.88,15.88,34.64,34.64,0,0,1-12,2.25,35.55,35.55,0,0,1-18-4.75,34.76,34.76,0,0,1-13-13,35.43,35.43,0,0,1-4.76-18h0a37,37,0,0,1,4.76-17.88,33.56,33.56,0,0,1,13-13,35.91,35.91,0,0,1,18-4.76,35.2,35.2,0,0,1,17.88,4.76,34.67,34.67,0,0,1,13,13,35.2,35.2,0,0,1,4.76,17.88A17.11,17.11,0,0,0,482.73,396a17.42,17.42,0,0,0,12.63,5.13A16.81,16.81,0,0,0,508,396a17.95,17.95,0,0,0-12.63-30.64,20.32,20.32,0,0,0-3.13.38,53.43,53.43,0,0,0-8.88-16,36.47,36.47,0,0,1,12-2.13,33.56,33.56,0,0,1,18,4.76,37.37,37.37,0,0,1,13,13,33.2,33.2,0,0,1,4.75,17.88A37.09,37.09,0,0,1,526.37,401.26Z" transform="translate(-388.28 -308.5)" style="fill:#6c6b86"/><path d="M597,382.22v36.5H576.44V332.21H602c16.88,0,22.21,8.58,22.21,22.21v3.12c0,9.74-3.25,14.68-8.32,17.28,6.24,2.85,7.93,7.66,7.93,20.26,0,10.39-.13,20.26.26,23.64h-20c-.91-1.56-1.17-7.54-1.17-27.28,0-8.57-.77-9.22-4.93-9.22Zm.13-15.33h1.56c3.38,0,4.8-1.17,4.8-6.62v-6.89c0-4.8-1.16-5.84-5.19-5.84h-1.17Z" transform="translate(-388.28 -308.5)" style="fill:#6c6b86"/><path d="M652,388.45V399.1c0,3.64.78,5.07,2.86,5.07s3.24-1.17,3.24-5.46v-3.89H678V397c0,13.37-5.33,22.85-23.64,22.85-16.76,0-23.25-8.05-23.25-22.85V370.4c0-15.46,9.74-22.73,23.64-22.73,13.64,0,23.38,6.49,23.38,22.73v18.05Zm6-12.86v-7.14c0-3.51-.38-5.58-3-5.58-2.08,0-3,1.94-3,5.58v7.14Z" transform="translate(-388.28 -308.5)" style="fill:#6c6b86"/><path d="M705.41,414v26.24H684.76V368.84c0-9.35-.13-17.79-.26-20.13h20c.13,1.43.52,4,.65,6.49,2-3.63,6.24-7.53,13.38-7.53,9.61,0,13.77,5.84,13.77,18.05v33.9c0,10.78-2.86,20.26-16.11,20.26C714,419.88,708.27,419.24,705.41,414Zm6.24-16.75V369.75c0-3.12-.91-5.07-3-5.07-2.47,0-3.25,2.08-3.25,6.24v25.46c0,3.89.65,6.23,3,6.23C710.09,402.61,711.65,401.7,711.65,397.29Z" transform="translate(-388.28 -308.5)" style="fill:#6c6b86"/><path d="M739.05,418.72v-90.4h20.66v90.4Z" transform="translate(-388.28 -308.5)" style="fill:#6c6b86"/><path d="M787.24,348.71c1.17,11.56,3.51,35.59,3.77,44h1c.52-9.48,1.68-26.11,3.24-44H817c-2.72,10.78-7.27,37.92-14,67.93-3.12,13.9-3.9,24-22.6,24a68.07,68.07,0,0,1-9.87-.65V423.26c1.42.13,2.33.26,3.5.26,3.51,0,5.85-.65,6.11-2.34l-15.33-72.47Z" transform="translate(-388.28 -308.5)" style="fill:#6c6b86"/><path d="M821.66,332.21H847.5c15.07,0,22,9,22,23.64v5.72c0,16.1-6.23,24.68-22.34,24.68h-4.8v32.47H821.66Zm20.65,37.41H844c3.37,0,4.54-1.69,4.54-6.88v-9.36c0-4.67-1.82-5.84-4.67-5.84h-1.56Z" transform="translate(-388.28 -308.5)" style="fill:#6c6b86"/><path d="M921.15,400.79a162.73,162.73,0,0,0,.65,17.93H902.06c-.65-1-1-4.16-1.17-5.46-3.12,4.94-7.8,6.36-12.6,6.36-10.78,0-14.94-9.61-14.94-20.65v-1.43c0-18.44,12.21-22.72,25.85-22.72h1V367c0-3.76-.91-4.67-2.73-4.67s-2.73,1.17-2.73,5.32v2.86H875.43v-1.82c0-15.59,8.44-21,23.12-21,13.77,0,22.6,5.07,22.6,18.44Zm-20.91-12.86h-.91c-3.38,0-5.33,2.34-5.33,7.8v.52c0,5.32,1.3,6.75,3.25,6.75,2.21,0,3-1.95,3-5.46Z" transform="translate(-388.28 -308.5)" style="fill:#6c6b86"/><path d="M928.42,418.72v-90.4h20.65v90.4Z" transform="translate(-388.28 -308.5)" style="fill:#6c6b86"/></svg>