<?xml version="1.0" standalone="no"?>
<!DOCTYPE svg PUBLIC "-//W3C//DTD SVG 20010904//EN"
 "http://www.w3.org/TR/2001/REC-SVG-20010904/DTD/svg10.dtd">
<svg version="1.0" xmlns="http://www.w3.org/2000/svg"
 width="500.000000pt" height="500.000000pt" viewBox="0 0 500.000000 500.000000"
 preserveAspectRatio="xMidYMid meet">

<g transform="translate(0.000000,500.000000) scale(0.100000,-0.100000)"
fill="#000000" stroke="none">
<path d="M0 2500 l0 -2500 2500 0 2500 0 0 2500 0 2500 -2500 0 -2500 0 0
-2500z m2635 1660 c-33 -16 -123 -58 -200 -94 -218 -102 -206 -93 -233 -161
-32 -79 -156 -446 -172 -512 -8 -29 -11 -56 -7 -59 4 -4 26 8 49 27 80 64 242
169 261 169 14 0 133 -76 272 -175 8 -5 17 -6 22 -2 5 6 -63 225 -124 394 -5
13 254 273 272 273 6 0 47 -11 91 -25 l79 -25 -80 5 c-44 3 -84 2 -90 -3 -5
-4 -54 -53 -107 -108 l-97 -100 90 -265 c120 -353 140 -412 136 -415 -1 -2
-27 21 -57 50 -120 115 -339 266 -385 266 -44 0 -305 -170 -447 -293 -32 -27
-58 -46 -58 -43 0 6 121 383 179 556 16 47 48 146 71 220 23 74 47 140 54 146
6 6 56 30 111 53 55 24 120 53 145 64 152 69 198 86 240 86 l45 0 -60 -29z
m153 3 c61 -44 60 -47 -5 -14 -35 17 -63 33 -63 36 0 13 35 2 68 -22z m-1018
-1006 c0 -2 -24 -20 -54 -41 -57 -39 -182 -163 -173 -172 3 -3 88 -7 189 -8
198 -4 221 -6 588 -68 212 -36 266 -42 400 -42 119 -1 170 3 220 17 67 18 190
74 225 101 20 16 19 17 -30 62 -27 25 -76 61 -108 81 -31 20 -55 38 -52 41 11
11 219 -103 267 -147 l51 -47 -50 -37 c-69 -50 -142 -83 -260 -114 -89 -24
-114 -27 -278 -26 -140 0 -205 5 -290 21 -396 75 -513 91 -715 98 -85 3 -190
2 -232 -3 -49 -6 -78 -6 -78 0 0 11 64 93 95 121 78 71 180 134 253 156 15 5
28 9 30 9 1 1 2 -1 2 -2z m110 -347 c10 -5 21 -23 25 -39 9 -44 75 -140 129
-189 47 -43 156 -102 189 -102 13 0 17 -8 17 -36 l0 -37 -37 6 c-60 10 -174
72 -227 124 -78 77 -132 167 -151 251 -6 28 -4 32 15 32 12 0 30 -4 40 -10z
m488 -272 l-3 -163 -35 0 -35 0 -3 163 -2 162 40 0 40 0 -2 -162z m432 153 c0
-23 -87 -135 -133 -172 -52 -42 -148 -92 -199 -105 -26 -6 -28 -4 -28 27 1 32
4 36 79 71 78 37 154 102 189 161 13 22 23 27 54 27 21 0 38 -4 38 -9z m-1530
-615 c-1 -19 -1 -19 -11 -3 -14 24 -65 23 -79 -2 -15 -29 -12 -62 7 -83 17
-19 58 -24 68 -8 3 6 11 10 17 10 7 0 6 -6 -2 -15 -7 -8 -27 -15 -46 -15 -56
0 -84 67 -48 118 12 18 24 22 55 20 32 -1 39 -6 39 -22z m277 16 c22 -14 33
-60 22 -89 -12 -33 -26 -43 -60 -43 -35 0 -54 24 -54 70 0 21 7 45 14 54 14
17 57 21 78 8z m243 -34 l19 -43 18 42 c29 68 48 57 48 -27 0 -68 -1 -70 -25
-69 -17 1 -19 3 -7 6 13 4 17 15 17 59 0 60 -12 64 -30 9 -6 -19 -15 -35 -20
-35 -5 0 -14 16 -20 35 -18 55 -30 51 -30 -9 0 -44 4 -55 18 -59 11 -3 9 -5
-8 -6 -24 -1 -25 1 -25 69 0 83 16 93 45 28z m364 26 c28 -27 13 -53 -35 -63
-42 -8 -54 -47 -17 -54 19 -3 18 -5 -7 -6 l-30 -1 0 70 0 70 37 0 c20 0 44 -7
52 -16z m224 9 c-14 -3 -18 -15 -18 -52 0 -26 5 -52 12 -59 17 -17 55 -15 62
4 11 28 6 102 -6 107 -7 3 -4 6 7 6 18 1 20 -4 17 -56 -5 -68 -14 -83 -53 -83
-35 0 -42 12 -49 83 -6 56 -5 57 20 56 17 -1 19 -3 8 -6z m381 -20 c-2 -24 -2
-25 -6 -5 -3 15 -11 22 -29 22 -23 0 -24 -3 -24 -59 0 -54 2 -60 23 -64 12 -2
2 -4 -23 -4 -25 -1 -37 1 -27 4 14 4 17 16 17 64 0 52 -2 59 -19 59 -12 0 -21
-8 -24 -22 -4 -20 -4 -19 -6 5 -1 27 0 27 59 27 59 0 60 0 59 -27z m280 5 c-1
-17 -2 -19 -6 -5 -3 12 -15 17 -39 17 -30 0 -34 -3 -34 -26 0 -23 3 -26 25
-22 20 4 25 1 24 -16 0 -11 -3 -15 -6 -8 -2 6 -13 12 -24 12 -14 0 -19 -7 -19
-30 0 -28 2 -30 39 -30 29 0 41 5 44 18 4 13 5 11 6 -5 1 -22 -3 -23 -61 -22
-35 0 -57 3 -50 6 7 3 12 26 12 63 0 37 -5 60 -12 63 -7 3 13 6 45 6 53 1 57
-1 56 -21z m295 0 c8 -13 6 -21 -7 -35 -16 -18 -16 -21 0 -44 9 -13 22 -27 27
-31 8 -6 8 -8 0 -8 -5 0 -20 14 -32 30 -28 37 -62 41 -62 6 0 -13 6 -27 13
-29 6 -3 -1 -5 -18 -5 -16 0 -24 2 -17 5 7 3 12 26 12 63 0 37 -5 60 -12 64
-7 3 9 4 36 3 33 -1 52 -7 60 -19z m-1460 -214 c9 -3 16 -12 16 -20 0 -20 -32
-34 -53 -23 -39 22 -6 60 37 43z m1206 -209 l0 -215 -23 0 c-22 0 -23 3 -19
55 2 30 2 55 -1 55 -3 0 -15 -20 -26 -44 -10 -24 -28 -49 -39 -55 -33 -18 -97
-13 -125 9 -79 63 -71 251 13 295 59 30 115 13 145 -45 19 -37 19 -64 0 -29
-19 36 -69 53 -104 36 -60 -28 -79 -145 -34 -205 27 -36 79 -41 116 -12 29 23
52 89 43 126 -4 13 -3 24 2 24 5 0 6 50 4 110 l-5 110 27 0 26 0 0 -215z
m-1746 18 c23 -94 44 -174 47 -178 4 -3 16 35 28 84 12 50 30 132 42 181 l21
90 34 0 c38 0 31 19 86 -217 18 -79 35 -143 38 -143 3 0 20 64 38 143 54 230
49 217 79 217 21 0 24 -3 19 -22 -3 -13 -27 -105 -52 -205 l-47 -183 -37 0
-36 0 -44 183 c-31 131 -45 176 -51 162 -4 -11 -25 -93 -45 -182 l-38 -163
-37 0 -37 0 -46 188 c-26 103 -49 195 -52 205 -5 15 -1 18 22 15 27 -3 29 -6
68 -175z m1102 82 c51 -21 64 -61 64 -200 0 -107 -1 -115 -20 -115 -16 0 -19
8 -22 58 l-3 57 -16 -36 c-24 -52 -63 -79 -114 -79 -54 0 -84 24 -92 72 -9 56
31 91 122 108 77 14 95 24 95 50 0 22 -45 60 -72 60 -30 0 -76 -28 -83 -50 -8
-25 -45 -27 -45 -2 0 44 63 91 123 92 15 0 43 -7 63 -15z m312 -18 c3 -25 1
-28 -16 -23 -30 10 -69 -13 -83 -47 -17 -40 -24 -17 -9 28 23 70 102 100 108
42z m625 -7 c15 -17 27 -37 27 -45 0 -21 -32 -33 -38 -15 -3 8 -15 24 -28 37
-44 44 -134 22 -134 -33 0 -29 6 -32 98 -55 92 -23 112 -39 112 -90 0 -30 -6
-43 -32 -64 -30 -25 -37 -27 -106 -23 -66 3 -77 6 -98 31 -30 35 -32 77 -5 77
12 0 21 -9 25 -25 8 -32 37 -47 92 -48 29 0 51 6 64 18 41 37 15 66 -85 91
-101 26 -133 64 -104 128 18 39 65 58 129 52 45 -4 60 -10 83 -36z m-1493
-130 l0 -160 -25 0 -25 0 0 160 0 160 25 0 25 0 0 -160z m310 141 c0 -10 -40
-68 -90 -129 -49 -61 -90 -115 -90 -121 0 -7 33 -11 90 -11 83 0 90 -1 90 -20
0 -19 -7 -20 -125 -20 l-125 0 0 24 c0 15 32 63 90 132 49 60 90 112 90 117 0
4 -40 7 -90 7 -83 0 -90 1 -90 20 0 19 7 20 125 20 115 0 125 -1 125 -19z
m425 -47 c-5 -40 -4 -69 2 -73 6 -3 8 -42 5 -93 -4 -85 -5 -88 -28 -88 l-24 0
0 160 0 160 26 0 26 0 -7 -66z"/>
<path d="M1476 2068 c-9 -12 -16 -29 -16 -38 0 -9 7 -26 16 -38 22 -32 64 -26
82 11 29 60 -44 119 -82 65z"/>
<path d="M2080 2060 c0 -26 3 -30 29 -30 16 0 34 7 41 15 18 21 -4 45 -41 45
-26 0 -29 -4 -29 -30z"/>
<path d="M3260 2060 c0 -34 22 -40 55 -16 16 12 17 16 6 30 -7 9 -24 16 -37
16 -20 0 -24 -5 -24 -30z"/>
<path d="M2377 1596 c-74 -16 -105 -44 -91 -83 8 -23 16 -29 46 -31 46 -4 74
10 98 51 20 32 27 78 13 76 -5 0 -34 -6 -66 -13z"/>
</g>
</svg>
